<svg width="101" height="18" viewBox="0 0 101 18" fill="none" xmlns="http://www.w3.org/2000/svg">
<g clip-path="url(#clip0_94552_1162)">
<path d="M1.26449 16.5385C0.36955 15.2762 -0.0747041 13.7627 1.02073e-05 12.2308V5.84615C-0.108365 4.29774 0.308071 2.75746 1.18546 1.46154C2.05478 0.461538 3.39829 0 5.37403 0C7.34978 0 8.61425 0.461538 9.40455 1.30769C10.2626 2.37941 10.6846 3.72136 10.59 5.07692V6.61539H6.71754V4.84615C6.74881 4.32289 6.66808 3.799 6.48045 3.30769C6.38016 3.10938 6.2212 2.9448 6.02403 2.83513C5.82686 2.72547 5.60049 2.67572 5.37403 2.69231C4.82082 2.69231 4.42568 2.84615 4.26762 3.23077C4.08883 3.77733 4.00862 4.34988 4.03053 4.92308V13.1538C3.98879 13.71 4.0978 14.267 4.34665 14.7692C4.5047 15.1538 4.89985 15.3077 5.45306 15.3077C6.00627 15.3077 6.32239 15.1538 6.48045 14.7692C6.66013 14.2494 6.74049 13.7019 6.71754 13.1538V11.3077H10.59V12.8462C10.6704 14.2238 10.2508 15.5852 9.40455 16.6923C8.61425 17.6154 7.27075 18.0769 5.37403 18.0769C3.47732 18 2.05478 17.5385 1.26449 16.5385Z" fill="#111111"/>
<path d="M15.2527 0.231068H19.7574L23.0767 17.7695H19.4413L18.8091 14.0772H16.2011L15.5689 17.7695H11.8545L15.2527 0.231068ZM18.493 11.7695L17.5446 4.92338L16.5963 11.7695H18.493Z" fill="#111111"/>
<path d="M25.8427 3.15414H23.1557V0.231068H32.5602V3.07722H29.8732V17.7695H25.8427V3.15414Z" fill="#111111"/>
<path d="M39.752 0.231068H46.7066V2.07722H42.2019V7.84645H45.8372V9.61568H42.2019V16.0772H46.7066V17.8465H39.6729V0.231068H39.752Z" fill="#111111"/>
<path d="M48.7613 0.231068H50.5L55.6369 11.8465V0.231068H57.6917V17.7695H56.1111L50.8951 5.76953V17.7695H48.7613V0.231068Z" fill="#111111"/>
<path d="M60.0626 0.231068H67.0172V2.07722H62.5125V7.84645H66.1479V9.61568H62.5125V16.0772H67.0172V17.8465H60.0626V0.231068Z" fill="#111111"/>
<path d="M69.072 0.231049H72.7074C74.1375 0.134897 75.5587 0.514632 76.7379 1.30797C77.6072 2.00028 78.0024 3.23105 78.0024 4.84643C78.0024 7.0772 77.2911 8.46182 75.7895 8.92336L78.3185 17.6926H75.8686L73.4977 9.46182H71.5219V17.6926H68.993V0.231049H69.072ZM72.5493 7.76951C73.364 7.83486 74.1761 7.6168 74.8412 7.15413C75.3154 6.76951 75.5524 6.00028 75.5524 4.84643C75.5743 4.27324 75.4941 3.70068 75.3154 3.15413C75.1375 2.76194 74.832 2.43758 74.446 2.23105C73.9017 1.98962 73.3042 1.88388 72.7074 1.92336H71.601V7.69259H72.5493V7.76951Z" fill="#111111"/>
<path d="M81.1635 16.461C80.342 15.1161 79.9564 13.5612 80.0571 11.9995V6.15335C80.0376 5.03861 80.1705 3.9263 80.4523 2.84565C80.7167 2.03813 81.2437 1.33618 81.9538 0.845654C82.8362 0.337251 83.8542 0.0962316 84.8779 0.153347C86.5376 0.153347 87.723 0.537962 88.4343 1.38412C89.2525 2.50141 89.6438 3.86188 89.5407 5.23027V5.84565H87.1698V5.30719C87.1734 4.66296 87.1205 4.0196 87.0117 3.38412C86.9451 2.98253 86.7178 2.62298 86.3795 2.38412C85.9353 2.10032 85.4081 1.96529 84.8779 1.9995C84.3113 1.96416 83.7504 2.12793 83.2973 2.46104C83.1114 2.61351 82.9595 2.80132 82.8508 3.01295C82.7421 3.22458 82.6789 3.45558 82.6651 3.69181C82.5609 4.37949 82.5081 5.07362 82.507 5.76873V12.3072C82.4488 13.3033 82.6105 14.3001 82.9812 15.2303C83.2973 15.8457 83.9296 16.0764 84.8779 16.0764C85.2524 16.1218 85.6323 16.0584 85.9698 15.8942C86.3073 15.7299 86.5873 15.4722 86.7746 15.1533C87.1922 14.1806 87.3812 13.1294 87.3278 12.0764V10.8457H85.036V9.07642H89.6197V17.7687H88.0391L87.802 15.7687C87.5948 16.439 87.1634 17.0226 86.5763 17.4268C85.9892 17.831 85.2801 18.0326 84.5618 17.9995C83.9088 18.0369 83.2565 17.9159 82.6634 17.6474C82.0702 17.3789 81.5549 16.9712 81.1635 16.461Z" fill="#111111"/>
<path d="M94.6776 11.6154L90.8052 0.30769H93.1761L95.9421 8.76923L98.6291 0.30769H101L97.1275 11.6154V17.7692H94.7566V11.6154H94.6776Z" fill="#111111"/>
</g>
<defs>
<clipPath id="clip0_94552_1162">
<rect width="101" height="18" fill="white"/>
</clipPath>
</defs>
</svg>
