<svg xmlns="http://www.w3.org/2000/svg">
  <style>:root svg:not(:target) { display: none }</style>

<!--  index-->

  <svg id="divider-button" viewBox="0 0 40 40" fill="none" xmlns="http://www.w3.org/2000/svg">
    <rect x="1" y="1" width="38" height="38" rx="19" fill="white"/>
    <rect x="1" y="1" width="38" height="38" rx="19" stroke="CurrentColor" stroke-width="2"/>
    <path d="M16 11L8 20L16 29V11Z" fill="CurrentColor"/>
    <path d="M32 20L24 11V29L32 20Z" fill="CurrentColor"/>
  </svg>

<!--  <svg id="arrow" viewBox="0 0 32 12">-->
<!--    <line y1="6" x2="26" y2="6" stroke="black" stroke-width="2"/>-->
<!--    <path d="M32 6L25.25 11.1962L25.25 0.803848L32 6Z" fill="black"/>-->
<!--  </svg>-->

<!--  <svg id="cat-pro" width="268" height="200" viewBox="0 0 268 200" fill="none" xmlns="http://www.w3.org/2000/svg">-->
<!--    <circle cx="134" cy="100" r="100" fill="#68B738"/>-->
<!--    <g clip-path="url(#clip0_2403_774)">-->
<!--      <path d="M246.236 55.5137C248.545 51.8399 251.614 48.7029 255.236 46.3137C257.236 44.9137 258.436 44.9137 259.636 47.5137C261.236 51.3137 262.636 55.3137 261.436 59.5137C261.218 60.226 261.177 60.9809 261.316 61.7128C261.456 62.4447 261.772 63.1315 262.236 63.7137C263.436 65.3137 264.436 66.9137 265.436 68.3137C266.797 70.0412 267.68 72.0963 267.996 74.2728C268.312 76.4492 268.05 78.6705 267.236 80.7137C266.502 82.6973 266.363 84.8522 266.836 86.9137C267.236 88.8937 267.236 90.9337 266.836 92.9137C266.675 94.3965 266.075 95.7975 265.113 96.9375C264.151 98.0775 262.871 98.9048 261.436 99.3137C258.878 99.8005 256.595 101.227 255.036 103.314C254.848 103.621 254.583 103.874 254.267 104.049C253.952 104.225 253.597 104.316 253.236 104.314C250.836 104.714 244.836 99.3137 244.836 96.9137V95.7137C245.036 88.5137 244.636 87.9137 238.036 84.9137C236.655 84.4265 235.417 83.6015 234.436 82.5137C233.236 80.9137 231.636 81.1137 229.836 81.7137C228.036 82.3137 227.036 83.5137 227.236 85.5137C227.84 90.3554 228.04 95.2388 227.836 100.114C227.85 100.67 227.986 101.217 228.236 101.714C234.436 110.714 236.836 121.314 239.836 131.514C242.236 139.314 246.636 143.514 254.636 144.114C255.917 144.216 257.187 144.416 258.436 144.714C260.08 144.978 261.607 145.729 262.819 146.87C264.031 148.011 264.873 149.489 265.236 151.114C266.636 155.314 265.836 156.314 261.636 156.314H248.636C246.953 156.399 245.303 155.825 244.036 154.714C242.012 153.005 239.713 151.653 237.236 150.714C234.499 149.703 232.129 147.891 230.436 145.514C228.094 142.241 225.412 139.224 222.436 136.514C216.836 130.714 210.836 125.114 205.636 119.114C201.678 115.025 199.395 109.602 199.236 103.914C199.236 102.114 198.836 101.314 196.836 102.114C196.238 102.494 195.546 102.701 194.836 102.714C189.236 102.714 186.436 106.114 184.436 111.114C182.636 115.314 180.236 119.314 178.036 123.514C176.789 126.143 176.108 129.005 176.036 131.914C176.036 136.714 177.236 138.314 181.636 139.914C184.436 140.914 187.036 141.914 188.436 144.714C190.036 147.914 189.636 148.714 186.236 148.914H172.636C171.852 148.991 171.064 148.821 170.382 148.426C169.7 148.031 169.16 147.432 168.836 146.714L165.236 140.714C164.175 139.148 163.496 137.356 163.253 135.48C163.01 133.605 163.21 131.698 163.836 129.914C164.702 126.441 164.77 122.817 164.036 119.314C163.532 116.874 163.576 114.353 164.164 111.932C164.752 109.511 165.869 107.25 167.436 105.314C168.636 103.914 168.636 103.314 166.636 102.914C158.458 101.176 150.53 98.4217 143.036 94.7137C142.983 94.7137 142.933 94.6926 142.895 94.6551C142.858 94.6176 142.836 94.5667 142.836 94.5137C136.436 92.1137 135.236 92.5137 133.436 99.1137C131.836 104.714 130.236 110.314 129.036 116.114C127.636 122.514 129.236 128.514 131.236 134.514C132.036 136.914 134.436 136.714 136.236 137.314C140.236 138.514 143.636 140.114 145.236 144.314C146.636 147.514 146.436 147.914 143.036 147.914C139.636 147.914 136.236 147.714 132.636 147.914C129.599 147.969 126.634 146.98 124.236 145.114C114.636 138.714 111.836 128.914 111.036 118.314C110.636 111.714 107.036 106.514 102.836 101.514C102.036 100.514 101.236 100.114 100.036 100.914C95.7434 103.281 91.2614 105.288 86.6365 106.914C76.985 110.322 68.5157 116.431 62.2365 124.514C59.8918 127.464 58.3732 130.984 57.8365 134.714C57.2365 138.314 58.2365 139.914 61.8365 140.914C65.4365 141.914 67.2365 143.914 67.6365 147.714C67.8365 149.314 67.2365 150.114 65.6365 150.114H49.4365C48.9063 150.076 48.393 149.911 47.9403 149.632C47.4876 149.354 47.1089 148.97 46.8365 148.514C44.3242 145.403 42.9798 141.512 43.0365 137.514C42.9315 130.604 43.5346 123.701 44.8365 116.914C45.1034 114.881 45.8623 112.944 47.0473 111.271C48.2323 109.598 49.8075 108.24 51.6365 107.314C63.4365 101.714 69.6365 91.1137 75.2365 80.1137C76.4365 77.9137 75.4365 77.5137 73.4365 77.7137C67.8391 78.4908 62.5358 80.6947 58.0365 84.1137C52.1448 88.4114 46.5949 93.1589 41.4365 98.3137C35.9358 103.901 28.6418 107.371 20.8365 108.114C6.23646 108.914 -0.56354 100.714 0.0364599 87.5137C0.170585 83.0129 1.86775 78.6993 4.83646 75.3137C5.8685 73.9757 7.27593 72.9757 8.87899 72.4413C10.4821 71.907 12.208 71.8625 13.8365 72.3137C16.8365 73.1137 17.6365 74.7137 16.4365 77.7137C15.8365 78.9137 15.0365 79.9137 14.4365 81.1137C13.5737 82.3396 12.8995 83.6879 12.4365 85.1137C10.2365 91.1137 13.2365 95.3137 19.4365 95.9137C26.0365 96.5137 31.4365 93.7137 36.4365 89.7137C42.4603 84.8902 47.8379 79.311 52.4365 73.1137C55.875 68.5885 60.2046 64.8163 65.1581 62.03C70.1116 59.2436 75.5837 57.5024 81.2365 56.9137C85.8365 56.3137 89.8365 54.3137 94.2365 53.1137C102.465 50.6049 111.034 49.3904 119.636 49.5137C123.621 49.6796 127.59 48.9269 131.236 47.3137C141.036 43.3137 151.236 43.3137 161.436 45.3137C169.436 46.9137 177.436 48.9137 185.236 50.9137C189.878 51.7787 194.651 51.6423 199.236 50.5137C208.014 48.2888 216.992 46.9488 226.036 46.5137C231.961 46.2254 237.867 47.3928 243.236 49.9137C247.236 51.7137 247.236 51.7137 246.236 55.5137Z" fill="black"/>-->
<!--    </g>-->
<!--    <defs>-->
<!--      <clipPath id="clip0_2403_774">-->
<!--        <rect width="268" height="112" fill="white" transform="translate(0 44)"/>-->
<!--      </clipPath>-->
<!--    </defs>-->
<!--  </svg>-->

<!--  <svg id="cat-slim" width="200" height="211" viewBox="0 0 200 211" fill="none" xmlns="http://www.w3.org/2000/svg">-->
<!--    <circle cx="100" cy="111" r="100" fill="#68B738"/>-->
<!--    <g clip-path="url(#clip0_2403_755)">-->
<!--      <path d="M139.68 0H138.92C137.636 0.725875 136.614 1.83883 136 3.18C134.875 5.34423 134.009 7.63331 133.42 10C133.294 10.7116 132.934 11.3611 132.398 11.8462C131.863 12.3313 131.181 12.6246 130.46 12.68C128.256 13.06 126.167 13.9386 124.355 15.2489C122.542 16.5591 121.052 18.2663 120 20.24C118.553 22.8026 117.316 25.478 116.3 28.24C113.46 35.6 111.28 43.2 108.6 50.62C107.34 54 107.28 54 103.48 54C98.94 54 99.26 53.3 99.2 58.3C99.2 59.88 99.68 60.68 101.36 60.6C101.88 60.6 102.66 60.34 102.86 61.02C103.06 61.7 102.38 62 101.98 62.4C99.6086 64.8073 96.6075 66.4984 93.32 67.28C89.52 68.3 85.64 69.1 81.94 70.34C72.44 73.52 63.66 77.96 56.82 85.48C52.8206 90.1507 49.6177 95.4483 47.34 101.16C40 118.44 36.44 136.64 33.68 155.02C32.38 163.64 31.46 172.3 30.76 181.02C30.4 185.3 30 189.64 30 194H96.66C96.7707 193.12 96.6102 192.227 96.2 191.44C95.5589 189.844 94.5171 188.441 93.1753 187.365C91.8335 186.29 90.237 185.578 88.54 185.3C87.14 184.98 86.98 184.56 87.84 183.46C89.2427 181.588 90.318 179.492 91.02 177.26C94.28 167.64 95.54 157.6 97.12 147.66C98.0125 140.068 100.348 132.716 104 126C106.849 121.057 110.649 116.727 115.18 113.26C116.84 112 116.9 112 117.18 114.14C117.38 115.56 117.42 117.02 117.52 118.46C118.12 127.909 118 137.39 117.16 146.82C116.405 154.13 116.304 161.492 116.86 168.82C117.655 177.327 119.174 185.751 121.4 194H148C147.653 191.835 146.656 189.826 145.142 188.241C143.627 186.655 141.667 185.567 139.52 185.12C137.013 184.722 134.45 184.858 132 185.52C130.8 185.8 130.3 185.52 130.2 184.22C129.373 173.632 130.046 162.98 132.2 152.58C134.868 140.574 136.91 128.438 138.32 116.22C138.845 111.286 140.398 106.517 142.88 102.22C145.26 97.98 147.34 93.58 149.68 89.32C150.609 87.771 151.168 86.0286 151.314 84.2282C151.46 82.4279 151.188 80.6182 150.52 78.94C149.98 77.52 149.46 76.08 148.8 74.72C146.8 70.82 144.8 66.96 142.96 63.02C141.98 61.02 142.2 60.78 144.38 60.72C147.64 60.72 147.64 60.72 147.7 57.44C147.7 57 147.7 56.56 147.7 56.12C147.7 54.74 147.18 53.98 145.7 54.12C144.7 54.12 143.7 54.12 142.66 54.12C141.28 54.12 140.88 53.54 141.22 52.12C141.895 49.8116 143.222 47.7473 145.042 46.1755C146.862 44.6037 149.098 43.5912 151.48 43.26C155.911 42.8758 160.376 43.1657 164.72 44.12C165.221 44.2779 165.765 44.2322 166.232 43.9927C166.7 43.7531 167.055 43.3391 167.22 42.84C168.02 40.84 168.9 38.84 169.8 36.84C170.004 36.4852 170.094 36.0763 170.058 35.6686C170.023 35.2608 169.863 34.8739 169.6 34.56C163.2 26.44 156.26 18.86 146.8 14C146.343 13.8033 145.942 13.4952 145.635 13.1039C145.328 12.7127 145.123 12.2506 145.04 11.76C144.505 8.90102 143.653 6.11051 142.5 3.44C141.959 2.01723 140.969 0.809563 139.68 0V0Z" fill="black"/>-->
<!--    </g>-->
<!--    <defs>-->
<!--      <clipPath id="clip0_2403_755">-->
<!--        <rect width="140" height="194" fill="white" transform="translate(30)"/>-->
<!--      </clipPath>-->
<!--    </defs>-->
<!--  </svg>-->

  <svg id="how-it-works__item--comfortable" viewBox="0 0 60 60">
    <rect width="8000" height="8000" fill="#68B738"/>
    <path d="M28.375 16C26.7437 16 25.475 17.3594 25.475 19.0812C25.475 20.8031 26.7437 22.1625 28.375 22.1625C30.0063 22.1625 31.275 20.8031 31.275 19.0812C31.275 17.3594 30.0063 16 28.375 16ZM28.375 17.1781C29.3719 17.1781 30.0969 18.0209 30.0969 19.0812C30.0969 20.0781 29.3084 20.9844 28.375 20.9844C27.3781 20.9844 26.6531 20.1416 26.6531 19.0812C26.6531 18.0844 27.4325 17.1781 28.375 17.1781ZM17.5 40.7406C17.5 41.9188 17.9078 42.9156 18.8594 43.7313C19.8563 44.5831 21.0344 44.5106 21.0344 44.5106H40.0656C40.845 44.5106 41.8781 44.13 42.6937 43.0606C43.5366 42.0638 43.4822 40.7044 43.4822 40.7044V23.4856C43.4822 23.0506 43.3734 22.8875 42.7391 22.8875C42.1047 22.8875 42.0503 23.1594 42.0503 23.4766V40.6953C42.0322 40.9944 41.9778 41.7828 41.3072 42.4172C40.5731 43.0425 39.8572 42.9609 39.8572 42.9609C39.8572 42.9609 21.7322 42.9609 20.8259 42.9338C20.4816 42.8703 19.9197 42.7434 19.3759 42.0275C18.8684 41.3025 18.9681 40.3962 18.9681 40.3962V23.1775C18.9681 22.7153 18.7325 22.5431 18.2431 22.5431C17.7538 22.5431 17.5 22.7153 17.5 23.1231V40.7406ZM33.8125 24.4281C32.725 24.6637 31.6375 24.8088 29.5531 26.7844C27.4688 28.7781 25.9281 28.6875 24.3875 28.5969C22.8469 28.5063 21.2156 27.0563 20.9438 26.6938C20.6084 26.3403 20.0375 26.5759 19.8562 26.8116C19.7022 27.0472 19.7022 27.455 19.965 27.8084C21.2338 28.9866 22.4119 29.8928 24.6775 30.0741C26.9431 30.2916 29.1181 29.2675 30.5681 27.8084C32.0181 26.3584 32.7431 26.0866 33.8306 25.9053C36.4587 25.4884 37.9994 26.5216 38.9056 27.1741C39.9025 28.2616 40.1744 27.9534 40.4462 27.6453C40.99 26.9294 40.2197 26.3766 39.3588 25.7422C37.5463 24.5641 35.8244 24.1109 33.8306 24.4734L33.8125 24.4281ZM24.75 31.5875C23.5719 31.5875 22.6656 32.5844 22.6656 33.8531C22.6656 35.1219 23.5719 36.1188 24.75 36.1188C25.9281 36.1188 26.8344 35.1219 26.8344 33.8531C26.8344 32.5844 25.9281 31.5875 24.75 31.5875ZM36.5312 32.3669C34.9906 32.3669 33.7219 33.7262 33.7219 35.3575C33.7219 36.9888 34.9906 38.3481 36.5312 38.3481C38.0719 38.3481 39.3406 36.9888 39.3406 35.3575C39.3406 33.7262 38.0719 32.3669 36.5312 32.3669ZM36.5312 33.8169C37.3288 33.8169 37.9813 34.5147 37.9813 35.3575C37.9813 36.2184 37.3288 36.8981 36.5312 36.8981C35.7337 36.8981 35.0812 36.2003 35.0812 35.3575C35.0812 34.4966 35.7337 33.8169 36.5312 33.8169Z" fill="white"/>
  </svg>

  <svg id="how-it-works__item--few" viewBox="0 0 60 60">
    <rect width="60" height="60" fill="#68B738"/>
    <path fill-rule="evenodd" clip-rule="evenodd" d="M36.1173 15.0761C36.491 14.9214 36.9211 15.0069 37.2071 15.2929C38.1156 16.2014 39.3038 18.1706 40.2659 21.2108C41.2373 24.2804 42 28.5081 42 34C42 34.5523 41.5523 35 41 35H37.5V44C37.5 44.5523 37.0523 45 36.5 45C35.9477 45 35.5 44.5523 35.5 44V16C35.5 15.5956 35.7436 15.2309 36.1173 15.0761ZM37.5 33H39.9912C39.9053 28.1836 39.2051 24.4875 38.3591 21.8142C38.0807 20.9346 37.7885 20.1715 37.5 19.519V33Z" fill="white"/>
    <path fill-rule="evenodd" clip-rule="evenodd" d="M23.5 15C24.0523 15 24.5 15.4477 24.5 16V44C24.5 44.5523 24.0523 45 23.5 45C22.9477 45 22.5 44.5523 22.5 44V16C22.5 15.4477 22.9477 15 23.5 15Z" fill="white"/>
    <path fill-rule="evenodd" clip-rule="evenodd" d="M19 15C19.5523 15 20 15.4477 20 16V21.5C20 22.0569 20.192 22.8152 20.7009 23.4166C21.18 23.9828 22.0145 24.5 23.4999 24.5C24.0522 24.5 24.4999 24.9477 24.4999 25.5C24.4999 26.0523 24.0522 26.5 23.4999 26.5C21.4855 26.5 20.07 25.7672 19.1741 24.7084C18.308 23.6848 18 22.4431 18 21.5V16C18 15.4477 18.4477 15 19 15Z" fill="white"/>
    <path fill-rule="evenodd" clip-rule="evenodd" d="M28 15C27.4477 15 27 15.4477 27 16V21.5C27 22.0569 26.808 22.8152 26.2991 23.4166C25.82 23.9828 24.9854 24.5 23.4999 24.5C22.9476 24.5 22.5001 24.9477 22.5001 25.5C22.5001 26.0523 22.9476 26.5 23.4999 26.5C25.5144 26.5 26.93 25.7672 27.8259 24.7084C28.692 23.6848 29 22.4431 29 21.5V16C29 15.4477 28.5523 15 28 15Z" fill="white"/>
  </svg>

  <svg id="how-it-works__item--quickly" viewBox="0 0 60 60">
    <rect width="60" height="60" fill="#68B738"/>
    <path d="M23.1206 15C22.0538 15 22.0538 16.5831 23.1206 16.5831H29.7878V18.1873C22.9606 18.62 17.5627 24.4142 17.5627 31.4854C17.5627 35.4959 19.3122 39.1159 22.0751 41.5539C22.5552 41.976 22.6192 42.7254 22.1818 43.1897L20.6457 44.7412C19.8989 45.4272 21.0084 46.4931 21.6804 45.7438L23.686 43.7069C24.038 43.3692 24.5607 43.2847 24.9981 43.4958C26.7228 44.3397 28.6191 44.784 30.5432 44.795C32.4673 44.8059 34.3687 44.3833 36.1031 43.5591C36.5298 43.348 37.0632 43.4325 37.4045 43.7702L39.3461 45.7438C40.0288 46.377 41.0102 45.4272 40.3915 44.7412L38.9407 43.2636C38.4926 42.8098 38.5567 42.0605 39.0474 41.6277C40.5031 40.3585 41.6674 38.7959 42.4623 37.0447C43.2571 35.2936 43.6641 33.3944 43.6558 31.4748C43.6558 24.4036 38.226 18.5989 31.388 18.1873V16.5831H38.0553C39.122 16.5831 39.122 15 38.0553 15H23.1206ZM19.0029 31.4748C19.0029 24.9419 24.198 19.6543 30.6093 19.6543C37.0098 19.6543 42.205 24.9419 42.205 31.4748C42.205 38.0183 37.0098 43.3164 30.6093 43.3164C24.2087 43.3164 19.0029 38.0183 19.0029 31.4748ZM29.7985 23.3799C29.7985 22.2823 31.4627 22.2823 31.4627 23.3799V32.0131C31.4627 32.237 31.3728 32.4517 31.2127 32.6101C31.0527 32.7684 30.8356 32.8574 30.6093 32.8574C30.3961 32.8574 30.1915 32.7743 30.0397 32.6262C29.888 32.478 29.8013 32.2767 29.7985 32.0658V23.3799ZM24.8061 25.9973C25.1144 25.9973 25.4102 25.8761 25.6283 25.6603C25.8463 25.4446 25.9688 25.152 25.9688 24.8469C25.9688 24.5418 25.8463 24.2492 25.6283 24.0334C25.4102 23.8177 25.1144 23.6965 24.8061 23.6965C24.5183 23.7239 24.2511 23.8563 24.0567 24.0681C23.8622 24.2798 23.7545 24.5556 23.7545 24.8416C23.7545 25.1277 23.8622 25.4034 24.0567 25.6152C24.2511 25.8269 24.5183 25.9593 24.8061 25.9867V25.9973ZM36.4018 25.9973C36.7102 25.9973 37.0059 25.8761 37.224 25.6603C37.4421 25.4446 37.5646 25.152 37.5646 24.8469C37.5646 24.5418 37.4421 24.2492 37.224 24.0334C37.0059 23.8177 36.7102 23.6965 36.4018 23.6965C36.114 23.7239 35.8468 23.8563 35.6524 24.0681C35.458 24.2798 35.3503 24.5556 35.3503 24.8416C35.3503 25.1277 35.458 25.4034 35.6524 25.6152C35.8468 25.8269 36.114 25.9593 36.4018 25.9867V25.9973ZM25.9688 38.5882C25.9688 40.1185 23.6433 40.1185 23.6433 38.5882C23.6433 37.0579 25.9688 37.0579 25.9688 38.5882ZM30.6093 42.0288C30.7706 42.0441 30.9334 42.0259 31.0872 41.9754C31.241 41.9248 31.3824 41.843 31.5024 41.7352C31.6223 41.6273 31.7182 41.4959 31.7838 41.3493C31.8494 41.2026 31.8833 41.044 31.8833 40.8837C31.8833 40.7233 31.8494 40.5648 31.7838 40.4181C31.7182 40.2715 31.6223 40.14 31.5024 40.0322C31.3824 39.9244 31.241 39.8426 31.0872 39.792C30.9334 39.7414 30.7706 39.7232 30.6093 39.7386C30.3215 39.7659 30.0543 39.8984 29.8599 40.1101C29.6654 40.3219 29.5577 40.5976 29.5577 40.8837C29.5577 41.1697 29.6654 41.4455 29.8599 41.6572C30.0543 41.869 30.3215 42.0014 30.6093 42.0288ZM22.4912 31.6437C22.5067 31.8033 22.4883 31.9643 22.4372 32.1165C22.3861 32.2687 22.3034 32.4086 22.1944 32.5273C22.0854 32.646 21.9525 32.7408 21.8043 32.8057C21.6561 32.8706 21.4958 32.9041 21.3337 32.9041C21.1717 32.9041 21.0114 32.8706 20.8632 32.8057C20.7149 32.7408 20.5821 32.646 20.4731 32.5273C20.3641 32.4086 20.2814 32.2687 20.2303 32.1165C20.1792 31.9643 20.1608 31.8033 20.1763 31.6437C20.204 31.3589 20.3378 31.0946 20.5518 30.9023C20.7659 30.7099 21.0446 30.6033 21.3337 30.6033C21.6229 30.6033 21.9016 30.7099 22.1156 30.9023C22.3296 31.0946 22.4635 31.3589 22.4912 31.6437ZM39.8794 32.794C40.0408 32.8094 40.2036 32.7912 40.3574 32.7406C40.5112 32.6901 40.6526 32.6082 40.7726 32.5004C40.8925 32.3926 40.9884 32.2611 41.054 32.1145C41.1196 31.9679 41.1535 31.8093 41.1535 31.6489C41.1535 31.4886 41.1196 31.33 41.054 31.1834C40.9884 31.0367 40.8925 30.9053 40.7726 30.7975C40.6526 30.6896 40.5112 30.6078 40.3574 30.5573C40.2036 30.5067 40.0408 30.4885 39.8794 30.5038C39.5916 30.5312 39.3245 30.6637 39.13 30.8754C38.9356 31.0871 38.8279 31.3629 38.8279 31.6489C38.8279 31.935 38.9356 32.2108 39.13 32.4225C39.3245 32.6342 39.5916 32.7667 39.8794 32.794ZM37.5646 38.5987C37.5646 40.1185 35.239 40.1185 35.239 38.5882C35.239 37.0579 37.5646 37.0579 37.5646 38.5882V38.5987Z" fill="white"/>
  </svg>

  <svg id="how-it-works__item--useful" viewBox="0 0 60 60">
    <rect width="60" height="60" fill="#68B738"/>
    <g clip-path="url(#clip0_95_18)">
      <path d="M42.8438 16.767C42.7434 16.317 42.3647 16 41.9325 16C41.9306 16 41.9288 16 41.9269 16C36.9891 16.033 24.9816 16.916 20.1337 24.38C17.6156 28.258 17.3991 33.293 19.4897 39.345C19.5056 39.392 19.5384 39.424 19.56 39.467C18.8128 41.44 18.5231 42.753 18.5156 42.79C18.4069 43.33 18.7303 43.862 19.2366 43.978C19.3022 43.993 19.3678 44 19.4334 44C19.8656 44 20.2547 43.679 20.3494 43.21C20.3691 43.108 22.7578 32.837 31.2028 26.832C31.6341 26.526 31.7503 25.905 31.4625 25.445C31.1747 24.985 30.5934 24.86 30.1622 25.168C25.3734 28.573 22.4241 33.176 20.6897 36.824C19.4484 32.246 19.7737 28.447 21.6759 25.519C25.4194 19.755 34.2984 18.365 39.6581 18.071C38.505 19.872 37.245 23.174 37.245 29C37.245 32.12 36.4153 34.522 34.7803 36.14C32.1591 38.731 27.9009 38.974 24.7866 38.724C24.2691 38.679 23.82 39.095 23.7806 39.646C23.7412 40.196 24.1284 40.676 24.6441 40.718C25.2675 40.769 25.9331 40.8 26.625 40.8C29.7956 40.8 33.4941 40.137 36.0544 37.606C38.0888 35.595 39.12 32.7 39.12 29.001C39.12 19.902 42.3356 17.905 42.3516 17.896C42.7416 17.687 42.9459 17.219 42.8438 16.767Z" fill="white"/>
    </g>
    <defs>
      <clipPath id="clip0_95_18">
        <rect width="30" height="32" fill="white" transform="translate(15 14)"/>
      </clipPath>
    </defs>
  </svg>

<!--  catalog-->

  <svg id="icon_gift" viewBox="0 0 78 81">
    <path d="M64.0156 35.6325H14.031C12.2766 35.6325 10.8494 34.2144 10.8494 32.4709V22.9989C10.8494 21.2554 12.2766 19.8367 14.031 19.8367H64.0149C65.7687 19.8367 67.1953 21.2554 67.1953 22.9989V32.4715C67.1959 34.2144 65.7693 35.6325 64.0156 35.6325ZM14.031 22.2598C13.6276 22.2598 13.2869 22.5984 13.2869 22.9989V32.4715C13.2869 32.8786 13.6208 33.21 14.031 33.21H64.0149C64.4244 33.21 64.7578 32.8786 64.7578 32.4715V22.9989C64.7578 22.5978 64.4171 22.2598 64.0149 22.2598H14.031Z" fill="white"/>
    <path d="M57.0447 68.0821H20.999C17.6218 68.0821 14.8741 65.3512 14.8741 61.9933V34.421C14.8741 33.7523 15.4201 33.2095 16.0929 33.2095C16.7656 33.2095 17.3116 33.7523 17.3116 34.421V61.9933C17.3116 64.0148 18.9661 65.6589 20.999 65.6589H57.0447C59.077 65.6589 60.7308 64.0148 60.7308 61.9933V34.421C60.7308 33.7523 61.2768 33.2095 61.9496 33.2095C62.6223 33.2095 63.1683 33.7523 63.1683 34.421V61.9933C63.1683 65.3512 60.4213 68.0821 57.0447 68.0821Z" fill="white"/>
    <path d="M39.0225 68.0821C38.3498 68.0821 37.8038 67.5399 37.8038 66.8705V34.421C37.8038 33.7523 38.3498 33.2095 39.0225 33.2095C39.6953 33.2095 40.2413 33.7523 40.2413 34.421V66.8699C40.2413 67.5399 39.6959 68.0821 39.0225 68.0821Z" fill="white"/>
    <path d="M23.8113 22.2556C19.9966 20.2008 18.5731 15.4442 20.6383 11.6513C22.7022 7.86033 27.4864 6.44461 31.303 8.4958C37.117 11.6265 40.2565 20.3607 40.3869 20.7308L38.0877 21.5347C38.0585 21.4523 35.1256 13.31 30.1433 10.627C27.5078 9.21063 24.2062 10.1884 22.7821 12.8047C21.3567 15.4236 22.339 18.7069 24.9734 20.1251L23.8113 22.2556Z" fill="white"/>
    <path d="M54.2313 22.2556L53.071 20.1244C54.3477 19.4369 55.2782 18.2974 55.6926 16.9156C56.1063 15.5332 55.9534 14.0732 55.2617 12.8053C54.5719 11.5362 53.4263 10.6118 52.0363 10.2005C50.6457 9.78913 49.1783 9.94058 47.9023 10.6269C42.9201 13.3093 39.9871 21.4517 39.9579 21.5341L37.6587 20.7302C37.7891 20.3601 40.928 11.6259 46.7421 8.49578C48.5897 7.50109 50.7182 7.28179 52.7316 7.87788C54.7468 8.47337 56.4061 9.81397 57.4061 11.6513C58.4073 13.4881 58.6285 15.6029 58.0289 17.6062C57.4287 19.6089 56.0801 21.2597 54.2313 22.2556Z" fill="white"/>
    <path d="M61.9496 51.8567H16.0929C15.4201 51.8567 14.8741 51.3142 14.8741 50.6456C14.8741 49.9771 15.4201 49.4346 16.0929 49.4346H61.9496C62.6223 49.4346 63.1683 49.9771 63.1683 50.6456C63.1683 51.3142 62.6229 51.8567 61.9496 51.8567Z" fill="white"/>
  </svg>

  <svg id="plus" viewBox="0 0 30 30">
    <line x1="15" x2="15" y2="30" stroke="#D3D3D3" stroke-width="2"/>
    <line x1="30" y1="15" y2="15" stroke="#D3D3D3" stroke-width="2"/>
  </svg>

  <svg id="plus-tablet" viewBox="0 0 60 60">
    <line x1="31" x2="31" y2="60" stroke="#D3D3D3" stroke-width="2"/>
    <line x1="60" y1="31" y2="31" stroke="#D3D3D3" stroke-width="2"/>
  </svg>

<!--  form-->

  <svg id="checkbox-checked" viewBox="0 0 19 15">
    <path d="M7 11.718L1.3 5.26951L0.25 6.45739L7 14.0938L18.25 1.36648L17.2 0.09375L7 11.718Z" fill="#68B738"/>
  </svg>

  <svg id="checkbox-checked--tablet" viewBox="0 0 26 26">
    <path d="M10 19.499L2.4 10.901L1 12.4848L10 22.6667L25 5.69697L23.6 4L10 19.499Z" fill="#68B738"/>
  </svg>

<!--  <svg id="email-input" width="20" height="20" viewBox="0 0 20 20" fill="none" xmlns="http://www.w3.org/2000/svg">-->
<!--    <path d="M1.50034 8.5V16.5H18.5041V8.5M1.50034 3.5H18.5041V5.5L10.0022 11.5L1.50034 5.5V3.5Z" stroke="black" stroke-linecap="round" stroke-linejoin="round"/>-->
<!--  </svg>-->

<!--  <svg id="phone-input" width="20" height="20" viewBox="0 0 20 20" fill="none" xmlns="http://www.w3.org/2000/svg">-->
<!--    <path d="M10.0022 10H18.5041M18.5041 10L16.0036 7.5M18.5041 10L16.0036 12.5M8.50191 2.5V7.5H5.50124V12.5H8.50191V17.5H6.00135C4.50102 17.5 3.50079 16.5 3.50079 15V5C3.50079 3.5 4.50102 2.5 6.00135 2.5H8.50191Z" stroke="black" stroke-linecap="round" stroke-linejoin="round"/>-->
<!--  </svg>-->

<!--  footer-->

  <svg id="vkontakte" viewBox="0 0 28 22">
    <path fill="currentColor" d="M1 5.33876C1 4.48373 1.5151 4.02268 2.54531 3.95562L6.51515 3.98077C6.78158 3.98077 6.95921 4.10651 7.04802 4.35799C7.45655 5.61538 7.91392 6.70094 8.42014 7.61465C8.92637 8.52835 9.58801 9.58038 10.4051 10.7707C10.4761 10.9216 10.5916 10.997 10.7514 10.997C10.8758 10.997 10.9735 10.9384 11.0445 10.821L11.1244 10.5444L11.1511 6.19379C11.1511 5.89201 11.0756 5.69083 10.9246 5.59024C10.7736 5.48965 10.4939 5.4142 10.0853 5.36391C9.76563 5.31361 9.60577 5.12919 9.60577 4.81065C9.60577 4.74359 9.61465 4.69329 9.63241 4.65976C10.0054 3.57002 11.0711 3.02515 12.8296 3.02515L14.3216 3C14.9966 3 15.5561 3.15927 16.0001 3.47781C16.4442 3.79635 16.6662 4.29931 16.6662 4.98669V10.6953C16.7906 10.7791 16.906 10.821 17.0126 10.821C17.279 10.821 17.5099 10.6701 17.7053 10.3683C19.6592 7.78649 20.716 6.05966 20.8759 5.18787C20.8759 5.1711 20.8936 5.12919 20.9291 5.06213C21.0535 4.81065 21.2577 4.5927 21.5419 4.40828C21.8261 4.22387 22.0748 4.09813 22.288 4.03107C22.359 3.99753 22.4389 3.98077 22.5277 3.98077H26.6574L26.9239 4.00592C27.2791 4.00592 27.5544 4.16519 27.7498 4.48373C27.8209 4.58432 27.8697 4.69329 27.8964 4.81065C27.923 4.92801 27.9408 5.04536 27.9496 5.16272C27.9585 5.28008 27.963 5.34714 27.963 5.36391V5.53994C27.8386 6.22732 27.5233 6.9608 27.0171 7.74038C26.5109 8.51997 25.867 9.36243 25.0855 10.2678C24.304 11.1731 23.8155 11.7682 23.6201 12.0533C23.4603 12.2544 23.3803 12.4389 23.3803 12.6065C23.3803 12.7406 23.4514 12.8915 23.5935 13.0592L27.4834 17.6864C27.6965 17.9546 27.8031 18.248 27.8031 18.5666C27.8031 18.9522 27.6432 19.2707 27.3235 19.5222C27.0038 19.7737 26.6219 19.9162 26.1779 19.9497L25.7249 19.9749H21.6752C21.6574 19.9749 21.6219 19.979 21.5686 19.9874C21.5153 19.9958 21.4798 20 21.462 20C21.0712 20 20.7071 19.8407 20.3696 19.5222C20.2453 19.3881 19.4105 18.3989 17.8652 16.5547C17.7764 16.4374 17.652 16.3284 17.4922 16.2278C17.4211 16.4961 17.3279 16.8817 17.2124 17.3846C17.097 17.8876 17.0126 18.248 16.9593 18.466L16.8794 18.8935C16.7018 19.4803 16.3287 19.8323 15.7604 19.9497L15.3874 19.9749H12.7763C11.3021 19.9749 9.83224 19.3378 8.36686 18.0636C6.90148 16.7894 5.58264 15.1423 4.41034 13.122C3.23803 11.1018 2.14566 8.75049 1.13322 6.06805C1.04441 5.8501 1 5.607 1 5.33876ZM17.0126 11.8521C16.6396 11.8521 16.3021 11.7557 16.0001 11.5629C15.6982 11.3701 15.5472 11.106 15.5472 10.7707V4.98669C15.5472 4.65138 15.4584 4.41248 15.2808 4.26997C15.1032 4.12747 14.7923 4.05621 14.3483 4.05621L12.8296 4.10651C12.0658 4.10651 11.4886 4.23225 11.0978 4.48373C11.8793 4.8358 12.2701 5.40582 12.2701 6.19379V10.6198C12.2346 11.039 12.0569 11.3868 11.7372 11.6635C11.4175 11.9401 11.0623 12.0784 10.6715 12.0784C10.1386 12.0784 9.7301 11.8353 9.44591 11.3491C8.06046 9.37081 7.03025 7.4931 6.35529 5.71598L6.1155 5.06213L2.57195 5.03698C2.34104 5.03698 2.21227 5.04956 2.18562 5.0747C2.15898 5.09985 2.14566 5.1711 2.14566 5.28846C2.14566 5.43935 2.16342 5.59862 2.19895 5.76627L2.75845 7.17456C4.25048 10.8126 5.87127 13.6795 7.62085 15.7751C9.37042 17.8708 11.0889 18.9186 12.7763 18.9186H15.4406C15.5472 18.9186 15.6271 18.8893 15.6804 18.8306C15.7337 18.7719 15.7781 18.6588 15.8136 18.4911L15.8669 18.2396L16.3732 16.0266C16.5152 15.7249 16.6396 15.5237 16.7462 15.4231C16.9415 15.2387 17.1725 15.1465 17.4389 15.1465C17.8652 15.1465 18.3003 15.3895 18.7444 15.8757L21.0091 18.5917C21.1512 18.8097 21.3022 18.9186 21.462 18.9186H25.8581C26.391 18.9186 26.6574 18.7929 26.6574 18.5414C26.6574 18.4576 26.6308 18.3738 26.5775 18.2899L22.7142 13.7382C22.4123 13.3861 22.2613 13.0089 22.2613 12.6065C22.2613 12.2041 22.4034 11.8185 22.6876 11.4497C22.9185 11.1144 23.367 10.557 24.0331 9.77737C24.6992 8.99778 25.2809 8.26849 25.7782 7.5895C26.2756 6.9105 26.6042 6.29438 26.764 5.74112L26.8439 5.4142C26.8262 5.38067 26.8173 5.32618 26.8173 5.25074C26.8173 5.1753 26.8084 5.11243 26.7907 5.06213H22.6077C22.3412 5.16272 22.1281 5.31361 21.9682 5.51479L21.8084 5.9926C21.3643 7.14941 20.2009 8.93491 18.3181 11.3491C17.9451 11.6844 17.5099 11.8521 17.0126 11.8521Z"/>
  </svg>

  <svg id="youtube" viewBox="0 0 28 22">
    <path fill="currentColor" d="M17.8509 10.7927L12.6145 7.30184C12.5159 7.23691 12.4016 7.19985 12.2837 7.19459C12.1657 7.18934 12.0486 7.21608 11.9446 7.27198C11.8406 7.32789 11.7537 7.41087 11.693 7.51215C11.6324 7.61343 11.6002 7.72924 11.6 7.84729V14.8291C11.6001 14.9481 11.6327 15.0648 11.6942 15.1667C11.7557 15.2686 11.8438 15.3518 11.9491 15.4073C12.0524 15.4631 12.1691 15.4895 12.2864 15.4837C12.4037 15.478 12.5172 15.4402 12.6145 15.3746L17.8509 11.8837C17.9409 11.8239 18.0148 11.7429 18.0658 11.6477C18.1169 11.5526 18.1436 11.4462 18.1436 11.3382C18.1436 11.2302 18.1169 11.1239 18.0658 11.0287C18.0148 10.9335 17.9409 10.8525 17.8509 10.7927ZM12.9091 13.6073V9.06911L16.3127 11.3382L12.9091 13.6073ZM25.3891 5.04366C25.2942 4.67547 25.1131 4.33511 24.8609 4.05061C24.6086 3.76611 24.2924 3.54561 23.9382 3.40729C20.2182 1.9782 14.2509 2.00002 14 2.00002C13.7491 2.00002 7.78182 1.9782 4.06182 3.40729C3.70764 3.54561 3.3914 3.76611 3.13914 4.05061C2.88689 4.33511 2.70584 4.67547 2.61091 5.04366C2.32727 6.11275 2 8.07638 2 11.3382C2 14.6 2.32727 16.5637 2.61091 17.6327C2.70584 18.0009 2.88689 18.3413 3.13914 18.6258C3.3914 18.9103 3.70764 19.1308 4.06182 19.2691C7.78182 20.6982 13.7491 20.6764 14 20.6764H14.0764C14.8291 20.6764 20.3927 20.6327 23.9382 19.2691C24.2924 19.1308 24.6086 18.9103 24.8609 18.6258C25.1131 18.3413 25.2942 18.0009 25.3891 17.6327C25.6727 16.5637 26 14.6 26 11.3382C26 8.07638 25.6727 6.11275 25.3891 5.04366ZM24.1236 17.3055C24.0807 17.472 23.999 17.6259 23.8853 17.7548C23.7715 17.8838 23.6289 17.984 23.4691 18.0473C19.9782 19.3891 14.0655 19.3673 14 19.3673C13.9345 19.3673 8.02182 19.3891 4.53091 18.0473C4.37107 17.984 4.22846 17.8838 4.11471 17.7548C4.00096 17.6259 3.91929 17.472 3.87636 17.3055C3.61455 16.3018 3.30909 14.4582 3.30909 11.3382C3.30909 8.2182 3.61455 6.37457 3.87636 5.37093C3.91929 5.20445 4.00096 5.05047 4.11471 4.92156C4.22846 4.79264 4.37107 4.69243 4.53091 4.62911C8.02182 3.28729 13.9345 3.30911 14 3.30911C14.0655 3.30911 19.9782 3.28729 23.4691 4.62911C23.6289 4.69243 23.7715 4.79264 23.8853 4.92156C23.999 5.05047 24.0807 5.20445 24.1236 5.37093C24.3855 6.37457 24.6909 8.2182 24.6909 11.3382C24.6909 14.4582 24.3855 16.3018 24.1236 17.3055Z"/>
  </svg>

  <svg id="telegram" viewBox="0 0 28 22">
    <path fill="currentColor" fill-rule="evenodd" clip-rule="evenodd" d="M23.4608 3.15291C23.6393 3.30222 23.7255 3.5349 23.6872 3.76448L21.0611 19.5214C21.0244 19.7411 20.8789 19.9273 20.6745 20.0159C20.47 20.1045 20.2346 20.0833 20.0493 19.9597L12.1708 14.7074C12.0177 14.6054 11.9145 14.4437 11.8862 14.2619C11.858 14.08 11.9074 13.8947 12.0223 13.751L14.633 10.4877L10.273 13.3944C10.077 13.525 9.82597 13.5407 9.61524 13.4353L4.36293 10.8092C4.12769 10.6915 3.98535 10.4449 4.0012 10.1824C4.01705 9.91983 4.18804 9.6921 4.43573 9.60364L22.8188 3.03826C23.038 2.95998 23.2822 3.00359 23.4608 3.15291ZM6.32626 10.3228L9.86168 12.0905L17.4231 7.0495C17.6925 6.86994 18.0525 6.91349 18.2712 7.1521C18.49 7.3907 18.5022 7.75314 18.3 8.00591L13.495 14.0121L19.9328 18.3039L22.2083 4.65058L6.32626 10.3228Z"/>
  </svg>

  <svg id="htmlacademy" viewBox="0 0 27 34">
    <path d="M13.6426 0.0157537L13.5 0L0 1.40733V26.0129L13.5 34L27 26.0129V1.40733L13.6426 0.0157537ZM25.2344 25.0151L13.5 31.9573L1.76561 25.0151V14.9293L13.4507 21.8451L13.4701 23.0984L5.45351 18.3548L5.44295 19.5801L13.4894 24.3885L13.5088 25.675L5.46408 20.9174L5.45351 22.1427L13.5 26.9511L21.6239 22.1182V20.8929V16.909L25.2432 14.7595L25.2344 25.0151ZM25.2344 13.4519L22.0147 15.3319L20.5325 16.2071L13.4666 12.0201L13.456 13.2454L19.4957 16.818L19.4429 16.8495L19.3126 16.9247L18.4536 17.4166L13.4666 14.4689L13.456 15.6942L17.3921 18.0222L16.4591 18.6314L16.438 18.6436L13.4666 16.902L13.456 18.1273L15.4029 19.2615L13.4155 20.4483L1.7973 13.5762L13.4349 6.61831L25.2344 13.4519ZM25.2344 12.2266L13.4401 5.31075L1.76561 12.2196V2.9897L13.5 1.76442L25.2344 2.9897V12.2266Z" fill="currentColor"/>
  </svg>

</svg>
