<svg width="118" height="21" fill="none" xmlns="http://www.w3.org/2000/svg"><path d="M1.424 19.216a7.92 7.92 0 0 1-1.403-5.06V6.844a8.041 8.041 0 0 1 1.382-5.109C2.332.572 3.918-.006 6.163 0c2.244.007 3.764.517 4.559 1.53a6.428 6.428 0 0 1 1.333 4.378v1.716H7.906V5.762a9.494 9.494 0 0 0-.13-1.463 1.622 1.622 0 0 0-.47-.926 1.576 1.576 0 0 0-1.153-.36 1.499 1.499 0 0 0-.87.134c-.27.131-.49.34-.633.597a5.202 5.202 0 0 0-.34 2.145v9.28a4.55 4.55 0 0 0 .39 2.146c.145.243.36.44.617.567.258.126.549.176.836.144.282.04.57-.01.821-.14.252-.129.456-.332.582-.581.242-.686.347-1.41.31-2.135v-1.95h4.149v1.687a6.925 6.925 0 0 1-1.233 4.494C9.9 20.474 8.377 21 6.213 21s-3.858-.585-4.79-1.784ZM17.706.283h4.75l4.008 20.473h-3.948l-.711-4.523h-3.327l-.802 4.494H13.67L17.706.283Zm3.658 13.376L20.1 5.43 18.85 13.66h2.515ZM29.54 3.364h-3.246V.283h10.741v3.08H33.83v17.364H29.53l.01-17.363Z" fill="#111"/><path d="M45.463.283h8.146v2.125H48.4v6.756h4.228v2.018H48.4v7.498h5.26v2.047h-8.196V.283ZM56.025.283h2.004l6.012 13.58V.284h2.444v20.473h-1.873L58.6 6.796v13.931h-2.485L56.025.283ZM69.722.283h8.137v2.125h-5.21v6.756h4.268v2.018h-4.229v7.498h5.23v2.047h-8.196V.283ZM80.274.283h4.228a7.156 7.156 0 0 1 4.68 1.277c1.002.848 1.492 2.233 1.492 4.153 0 2.6-.865 4.19-2.595 4.767l3.006 10.247H88.24l-2.756-9.593H83.21v9.593h-2.936V.283Zm4.008 8.774c.965.091 1.93-.173 2.705-.74.315-.363.55-.785.692-1.24.141-.454.185-.931.13-1.403a5.561 5.561 0 0 0-.29-1.95 1.835 1.835 0 0 0-.392-.625 1.893 1.893 0 0 0-.61-.428 4.888 4.888 0 0 0-2.055-.34H83.17v6.765l1.112-.039ZM94.623 19.216A8.825 8.825 0 0 1 93.35 14V7.176a12.826 12.826 0 0 1 .502-3.9 4.375 4.375 0 0 1 1.743-2.35 6.05 6.05 0 0 1 3.367-.819 5.41 5.41 0 0 1 2.258.271c.723.25 1.382.65 1.93 1.172a6.686 6.686 0 0 1 1.282 4.514v.76h-2.755v-.633a10.929 10.929 0 0 0-.18-2.262 1.946 1.946 0 0 0-.762-1.2 3.072 3.072 0 0 0-1.723-.399 2.573 2.573 0 0 0-1.814.546 2.475 2.475 0 0 0-.771 1.443 14.046 14.046 0 0 0-.17 2.428v7.594a7.146 7.146 0 0 0 .59 3.374c.272.326.617.589 1.01.766a2.902 2.902 0 0 0 2.493-.049c.384-.192.718-.468.976-.805a7.725 7.725 0 0 0 .612-3.559v-1.443h-2.666v-2.018h5.311v10.12h-1.814l-.29-2.35a3.601 3.601 0 0 1-1.403 1.936 3.77 3.77 0 0 1-2.335.668 4.785 4.785 0 0 1-2.292-.368 4.653 4.653 0 0 1-1.826-1.397ZM110.675 13.513 106.136.283h2.726l3.216 9.866 3.167-9.866H118l-4.509 13.23v7.214h-2.806l-.01-7.214Z" fill="#444"/></svg>